<?xml version="1.0" encoding="UTF-8" standalone="no"?>
<!-- Created with Inkscape (http://www.inkscape.org/) -->

<svg
   version="1.1"
   id="svg1"
   width="666.66669"
   height="666.66669"
   viewBox="0 0 666.66669 666.66669"
   sodipodi:docname="393390-PCQI1Y-158.eps"
   xmlns:inkscape="http://www.inkscape.org/namespaces/inkscape"
   xmlns:sodipodi="http://sodipodi.sourceforge.net/DTD/sodipodi-0.dtd"
   xmlns="http://www.w3.org/2000/svg"
   xmlns:svg="http://www.w3.org/2000/svg">
  <defs
     id="defs1" />
  <sodipodi:namedview
     id="namedview1"
     pagecolor="#ffffff"
     bordercolor="#000000"
     borderopacity="0.25"
     inkscape:showpageshadow="2"
     inkscape:pageopacity="0.0"
     inkscape:pagecheckerboard="0"
     inkscape:deskcolor="#d1d1d1">
    <inkscape:page
       x="0"
       y="0"
       inkscape:label="1"
       id="page1"
       width="666.66669"
       height="666.66669"
       margin="0"
       bleed="0" />
  </sodipodi:namedview>
  <g
     id="g1"
     inkscape:groupmode="layer"
     inkscape:label="1">
    <g
       id="group-R5">
      <path
         id="path2"
         d="M 5000,0 H 0 V 5000 H 5000 V 0"
         style="fill:#ffffff;fill-opacity:1;fill-rule:nonzero;stroke:none"
         transform="matrix(0.13333333,0,0,-0.13333333,0,666.66667)" />
      <path
         id="path3"
         d="m 2633.15,2905.05 v 373.65 c 0,27.43 22.23,49.66 49.66,49.66 v 0 c 27.43,0 49.66,-22.23 49.66,-49.66 v -146.87 c 0,-20.11 16.3,-36.41 36.42,-36.41 v 0 c 13.89,0 26.58,7.91 32.7,20.39 l 33.33,68.03 c 9.23,18.84 26.55,32.46 47.05,36.97 l 219.56,48.4 c 25.06,5.52 50.65,8.31 76.32,8.31 h 25.69 c 17.63,0 34.29,8.09 45.2,21.95 l 83.69,106.36 c 7.92,10.07 20.03,15.95 32.84,15.95 v 0 c 24.63,0 43.92,-21.21 41.59,-45.73 l -16.99,-179.21 c -1.39,-14.72 -11.91,-26.96 -26.25,-30.54 v 0 c -7.49,-1.87 -14.14,-6.17 -18.92,-12.23 l -58.34,-73.93 c -12.36,-15.66 -13.56,-37.4 -3.01,-54.33 l 15.86,-25.44 c 16.19,-25.96 8.49,-60.12 -17.27,-76.62 l -67.58,-43.3 c -24.11,-15.44 -42.09,-38.78 -50.87,-66.03 l -16.79,-52.1 c -9.31,-28.88 -36.69,-48.06 -67.02,-46.94 l -122.49,4.51 c -30.22,1.11 -56.15,21.89 -63.82,51.14 v 0 c -3.89,14.82 -12.62,27.91 -24.8,37.18 l -39.16,29.81 c -13.67,10.41 -22.94,25.57 -25.97,42.48 l -5.11,28.53 c -2.53,14.12 -14.81,24.39 -29.15,24.39 v 0 c -16.36,0 -29.61,-13.25 -29.61,-29.61 v -105.18 c 0,-29.39 -23.83,-53.21 -53.21,-53.21 v 0 c -29.39,0 -53.21,23.82 -53.21,53.21 z"
         style="fill:none;stroke:#181f24;stroke-width:30.8962;stroke-linecap:butt;stroke-linejoin:miter;stroke-miterlimit:10;stroke-dasharray:none;stroke-opacity:1"
         transform="matrix(0.13333333,0,0,-0.13333333,0,666.66667)" />
      <path
         id="path4"
         d="m 2676.95,2898.54 h -88.36"
         style="fill:none;stroke:#181f24;stroke-width:30.8962;stroke-linecap:butt;stroke-linejoin:miter;stroke-miterlimit:10;stroke-dasharray:none;stroke-opacity:1"
         transform="matrix(0.13333333,0,0,-0.13333333,0,666.66667)" />
      <path
         id="path5"
         d="m 1755.83,4393.41 142.68,382.3 c 10.86,29.11 42.55,44.69 72.23,35.51 v 0 c 23.06,-7.12 36.16,-31.4 29.46,-54.58 l -5.78,-20.01 c -2.65,-9.17 -11.04,-15.48 -20.59,-15.48 v 0 c -8.95,0 -16.96,5.56 -20.08,13.95 l -2.81,7.56 c -3.84,10.3 -16.01,14.68 -25.53,9.18 v 0 c -7.24,-4.18 -10.58,-12.85 -8.02,-20.81 v 0 c 8.24,-25.67 33.54,-41.88 60.3,-38.65 l 119.36,14.41 c 22.27,2.69 44.83,1.51 66.69,-3.48 l 85.64,-19.55 c 11.59,-2.65 12.63,-18.76 1.47,-22.87 v 0 c -39.53,-14.56 -81.86,-19.98 -123.79,-15.83 l -50.08,4.95 c -25.28,2.51 -49.3,-11.56 -59.48,-34.84 v 0 c -11.78,-26.92 -8.64,-58.03 8.26,-82.05 l 21.09,-29.97 c 10.08,-14.32 9.79,-33.51 -0.72,-47.52 v 0 c -8.27,-11.03 -21.58,-17.08 -35.33,-16.06 l -26.12,1.93 c -21.51,1.6 -37.97,-18.82 -31.86,-39.5 v 0 c 3.68,-12.43 14.74,-21.24 27.68,-22.04 l 229.92,-14.19 c 13.11,-0.81 23.15,11.5 19.72,24.18 v 0 c -5.35,19.8 12.9,38.39 32.57,32.62 22.22,-6.51 44.78,-21.05 44.78,-53.3 0,-63.5 -133.88,-56.64 -193.96,-56.64 -48.55,0 -412.89,-0.14 -550.88,-0.19 -14.73,-0.01 -20.01,19.42 -7.34,26.94 v 0 c 21.54,12.8 46.3,19.15 71.33,18.3 l 72.2,-2.43 c 25.22,-0.85 48.17,14.51 56.99,38.16 z"
         style="fill:none;stroke:#181f24;stroke-width:30.8962;stroke-linecap:butt;stroke-linejoin:miter;stroke-miterlimit:10;stroke-dasharray:none;stroke-opacity:1"
         transform="matrix(0.13333333,0,0,-0.13333333,0,666.66667)" />
      <path
         id="path6"
         d="m 1811.87,4620.31 55.35,-20.6"
         style="fill:none;stroke:#181f24;stroke-width:30.8962;stroke-linecap:butt;stroke-linejoin:miter;stroke-miterlimit:10;stroke-dasharray:none;stroke-opacity:1"
         transform="matrix(0.13333333,0,0,-0.13333333,0,666.66667)" />
      <path
         id="path7"
         d="m 3167.36,4304.15 h -544.93 c -10.33,0 -16.79,11.17 -11.64,20.12 v 0 c 13.37,23.22 16.1,51.07 7.49,76.43 v 0 c -12.5,36.85 -15.3,76.31 -8.13,114.56 l 58.6,312.53 c 4.02,21.44 26.41,34.06 46.83,26.4 v 0 c 9.99,-3.74 17.73,-11.82 21.04,-21.95 l 11.49,-35.1 c 9.12,-27.87 28.2,-51.39 53.6,-66.05 v 0 c 32.5,-18.76 54.24,-51.75 58.67,-89.02 v 0 c 4.24,-35.74 21.72,-68.59 48.98,-92.09 l 69.34,-59.76 c 5.95,-5.13 1.91,-14.88 -5.92,-14.29 l -157.73,11.8 c -44.17,3.31 -87.43,-13.8 -117.4,-46.41 v 0 c -4.17,-4.54 -0.95,-11.87 5.21,-11.87 h 464.82 c 16.63,0 28.29,16.41 22.81,32.12 v 0 c -18.15,52.07 -55.76,95.1 -104.95,120.04 v 0 c -25.85,13.11 -37.94,43.37 -28.24,70.68 l 42.01,118.28 c 5.28,14.87 25.42,17 33.7,3.58 l 250.06,-405.44 c 12.52,-20.31 5.8,-46.96 -14.87,-58.89 v 0 c -6.44,-3.71 -13.74,-5.67 -21.17,-5.67 z"
         style="fill:none;stroke:#181f24;stroke-width:30.8962;stroke-linecap:butt;stroke-linejoin:miter;stroke-miterlimit:10;stroke-dasharray:none;stroke-opacity:1"
         transform="matrix(0.13333333,0,0,-0.13333333,0,666.66667)" />
      <path
         id="path8"
         d="m 3019.74,4338.48 v -68.66"
         style="fill:none;stroke:#181f24;stroke-width:30.8962;stroke-linecap:butt;stroke-linejoin:miter;stroke-miterlimit:10;stroke-dasharray:none;stroke-opacity:1"
         transform="matrix(0.13333333,0,0,-0.13333333,0,666.66667)" />
      <path
         id="path9"
         d="M 1082.7,4350.29 H 748.27 c -22.043,0 -42.985,9.63 -57.332,26.37 v 0 c -14.344,16.73 -35.286,26.36 -57.333,26.36 h -56.406 c -36.543,0 -72.957,4.44 -108.433,13.21 l -46.09,11.4 c -19.668,4.87 -28.438,27.87 -16.996,44.59 v 0 c 8.715,12.74 5.941,30.07 -6.313,39.45 l -41.5,31.78 c -20.062,15.36 -29.031,41.2 -22.793,65.69 l 30.399,119.35 8.113,26.21 c 6.824,22.04 27.211,37.07 50.293,37.07 v 0 c 9.125,0 18.09,2.37 26.023,6.89 l 36.52,20.76 c 17.594,10.01 39.062,10.4 57.008,1.03 l 115.316,-60.16 c 15.492,-8.08 20.391,-27.92 10.445,-42.29 v 0 c -5.5,-7.94 -6.765,-18.09 -3.191,-27.07 13.586,-34.14 56.566,-116.28 160.551,-134.22 94.355,-16.27 141.558,16.85 160.828,37.1 8.668,9.11 20.131,14.99 32.651,16.15 l 88.66,8.23 c 23.45,2.17 47.07,-1.82 68.49,-11.6 l 126.38,-57.62 c 16.44,-7.5 23.96,-26.65 17.01,-43.33 -17.04,-40.9 -46.65,-108.8 -54.04,-105.63 -7.77,3.33 -77.65,26.28 -113.94,38.13 -9.6,3.14 -18.9,-5.38 -16.71,-15.24 l 12.61,-56.74 c 1.81,-8.15 -4.39,-15.87 -12.73,-15.87 z"
         style="fill:none;stroke:#181f24;stroke-width:30.8962;stroke-linecap:butt;stroke-linejoin:miter;stroke-miterlimit:10;stroke-dasharray:none;stroke-opacity:1"
         transform="matrix(0.13333333,0,0,-0.13333333,0,666.66667)" />
      <path
         id="path10"
         d="M 903.395,4399.51 V 4299.05"
         style="fill:none;stroke:#181f24;stroke-width:30.8962;stroke-linecap:butt;stroke-linejoin:miter;stroke-miterlimit:10;stroke-dasharray:none;stroke-opacity:1"
         transform="matrix(0.13333333,0,0,-0.13333333,0,666.66667)" />
      <path
         id="path11"
         d="m 3724.8,1554.41 16.62,-12.85 c 10.86,-8.39 17.22,-21.34 17.22,-35.07 v -65.76 c 0,-45.8 26.23,-87.55 67.49,-107.44 l 37.61,-18.12 c 16.15,-7.79 33.85,-11.83 51.78,-11.83 h 473.36 c 32.35,0 58.57,26.22 58.57,58.57 v 68.96 c 0,43.7 -26.66,82.99 -67.28,99.12 l -216.96,86.18 c -30.78,12.22 -52.3,40.43 -55.95,73.34 l -4.67,42.04 c -2.04,18.35 8.33,35.82 25.41,42.83 l 90.98,37.3 c 15.78,6.47 32.5,-7 29.55,-23.8 l -9.21,-52.39 c -4.8,-27.3 15.07,-52.76 42.71,-54.73 v 0 c 21.11,-1.51 40.59,11.34 47.52,31.34 l 13.97,40.36 c 10.39,30.03 34.03,53.59 64.09,63.9 l 39.62,13.58 c 8.34,2.87 16.07,-5.64 12.41,-13.67 l -40.78,-89.53 c -8.6,-18.86 -8.27,-40.58 0.88,-59.17 l 11.66,-23.69 c 15.11,-30.67 43.17,-52.95 76.47,-60.7 l 86.19,-20.04 c 33.09,-7.69 65.32,15.7 68.27,49.54 l 3.96,45.57 c 1.9,21.85 -4.6,43.6 -18.17,60.83 l -95.72,121.48 c -28.5,36.17 -73.14,55.77 -119.05,52.26 l -182.11,-13.9 c -47.13,-3.6 -92.79,-18.08 -133.38,-42.29 l -390.08,-232.68 c -18.18,-10.85 -19.73,-36.6 -2.98,-49.54 z"
         style="fill:none;stroke:#181f24;stroke-width:30.8962;stroke-linecap:butt;stroke-linejoin:miter;stroke-miterlimit:10;stroke-dasharray:none;stroke-opacity:1"
         transform="matrix(0.13333333,0,0,-0.13333333,0,666.66667)" />
      <path
         id="path12"
         d="m 3864.85,1734.43 39.05,-67.16"
         style="fill:none;stroke:#181f24;stroke-width:30.8962;stroke-linecap:butt;stroke-linejoin:miter;stroke-miterlimit:10;stroke-dasharray:none;stroke-opacity:1"
         transform="matrix(0.13333333,0,0,-0.13333333,0,666.66667)" />
      <path
         id="path13"
         d="m 2841.01,3725.9 c 0,0 -176.8,3.44 -226.57,12.02 -31.91,5.5 -71.57,18.76 -95.94,27.57 -14.55,5.26 -30.64,3.77 -44.04,-3.96 l -3.37,-1.95 c -9.63,-5.56 -21.87,-3.3 -28.88,5.33 v 0 c -7.89,9.73 -6.38,24.02 3.38,31.88 l 102.48,82.54 c 16.79,13.52 39.24,17.73 59.79,11.21 v 0 c 16.96,-5.38 35.4,-3.49 50.93,5.22 l 63.79,35.82 c 12.14,6.82 26.39,8.83 39.95,5.65 l 80.56,-18.89 c 22.57,-5.3 46.08,3.73 59.3,22.77 v 0 c 12.89,18.56 35.56,27.64 57.71,23.13 31.15,-6.35 79.04,-16.79 131.51,-30.65 58.98,-15.57 102.81,-39.09 126.34,-53.7 12.19,-7.57 19.56,-20.86 19.56,-35.21 v 0 c 0,-11.8 5.03,-22.97 13.79,-30.88 21.13,-19.09 65.61,-54.23 126.96,-75.88 63.77,-22.51 130.28,-31.35 161.69,-34.5 10.57,-1.05 18.54,-9.94 18.54,-20.56 v 0 c 0,-11.95 -10.07,-21.41 -21.99,-20.64 -49.34,3.15 -170.29,9.19 -244.06,-1.54 -80.75,-11.75 -317.82,17.32 -384.74,25.97 -10.87,1.41 -19.96,8.92 -23.43,19.32 v 0 c -3.81,11.44 -14.4,19.26 -26.46,19.54 z"
         style="fill:none;stroke:#181f24;stroke-width:30.8962;stroke-linecap:butt;stroke-linejoin:miter;stroke-miterlimit:10;stroke-dasharray:none;stroke-opacity:1"
         transform="matrix(0.13333333,0,0,-0.13333333,0,666.66667)" />
      <path
         id="path14"
         d="m 2621.73,3774.82 -11.59,-75.95"
         style="fill:none;stroke:#181f24;stroke-width:30.8962;stroke-linecap:butt;stroke-linejoin:miter;stroke-miterlimit:10;stroke-dasharray:none;stroke-opacity:1"
         transform="matrix(0.13333333,0,0,-0.13333333,0,666.66667)" />
      <path
         id="path15"
         d="m 1620.63,3233.61 247.23,48.85 c 12.89,2.54 23.61,-9.97 19.12,-22.32 l -14.73,-40.51 c -3.96,-10.91 -3.77,-22.84 0.56,-33.62 16.89,-42.01 66.86,-149.58 151.84,-197.71 88.1,-49.88 244.05,-102.39 296.09,-119.29 3.44,-1.12 2.74,-6.18 -0.88,-6.33 l -173.79,-7.09 c -18.4,-0.75 -36.34,5.82 -49.91,18.27 l -82.8,75.97 c -13.51,12.39 -35.12,8.72 -43.7,-7.48 -3.43,-6.48 -6.08,-13.97 -6.8,-22.28 -0.92,-10.59 -2.17,-20.69 -3.4,-29.3 -2.21,-15.52 -14.68,-27.45 -30.27,-29.12 -31.08,-3.33 -85.35,-8.08 -136.26,-7.23 -77.24,1.29 -104.27,24.46 -113.28,52.78 -9.01,28.32 -11.59,141.61 -29.61,149.33 -18.02,7.73 -37.34,-10.3 -42.48,-42.48 -5.15,-32.18 9.01,-47.63 15.44,-59.22 2.82,-5.07 4.16,-22.21 4.77,-39.89 0.87,-24.91 -20.12,-45.06 -44.99,-43.49 l -10.42,0.66 c -24.72,1.57 -42.82,23.91 -39.21,48.41 l 38.47,261.61 c 3.79,25.8 23.42,46.42 49.01,51.48 z"
         style="fill:none;stroke:#181f24;stroke-width:30.8962;stroke-linecap:butt;stroke-linejoin:miter;stroke-miterlimit:10;stroke-dasharray:none;stroke-opacity:1"
         transform="matrix(0.13333333,0,0,-0.13333333,0,666.66667)" />
      <path
         id="path16"
         d="m 1532.69,3112.32 56.84,-6.87"
         style="fill:none;stroke:#181f24;stroke-width:30.8962;stroke-linecap:butt;stroke-linejoin:miter;stroke-miterlimit:10;stroke-dasharray:none;stroke-opacity:1"
         transform="matrix(0.13333333,0,0,-0.13333333,0,666.66667)" />
      <path
         id="path17"
         d="m 1991.81,1778.62 c 0,0 184.85,82.69 296.73,145.93 50.35,28.46 85.27,45.75 108.44,56.16 14.1,6.34 28.5,-8.13 22.09,-22.2 l -71.2,-156.41 c -7,-15.37 -18,-28.58 -31.86,-38.23 l -49.89,-34.74 c -12.85,-8.95 -28.13,-13.75 -43.79,-13.75 h -32.18 c -17.67,0 -34.3,-8.36 -44.85,-22.54 l -13.87,-18.63 c -11.75,-15.79 -32.22,-22.82 -50.98,-16.86 -25.79,8.2 -62.05,14.68 -82.15,-4.13 -33.51,-31.34 -16.22,-95.12 -44.32,-114.58 -28.11,-19.46 -28.11,-37.83 -28.11,-52.97 0,-11.02 -62.54,-82.3 -96.49,-120.18 -12.84,-14.32 -15.41,-35.01 -6.55,-52.08 l 37.35,-72.03 c 7.96,-15.36 -7.65,-32.26 -23.59,-25.55 l -386.36,162.8 c -17.07,7.19 -20.55,29.87 -6.41,41.84 l 89.88,76.14 c 9.86,8.35 24.12,8.8 34.46,1.07 45.96,-34.37 169.66,-119.75 206.38,-72.54 35.56,45.72 -25.37,137.2 -53.45,174.71 -5.99,8 -1.05,19.56 8.9,20.48 16,1.48 36.27,0.21 44.55,-13.59 7.32,-12.19 10.96,-24.38 12.78,-33.51 1.63,-8.18 9.44,-13.57 17.6,-11.9 l 28.49,5.83 c 11.6,2.37 15.9,16.69 7.53,25.07 l -70.47,70.47 c -10.3,10.29 -6.6,27.78 6.98,33.03 z"
         style="fill:none;stroke:#181f24;stroke-width:30.8962;stroke-linecap:butt;stroke-linejoin:miter;stroke-miterlimit:10;stroke-dasharray:none;stroke-opacity:1"
         transform="matrix(0.13333333,0,0,-0.13333333,0,666.66667)" />
      <path
         id="path18"
         d="m 2134.5,1895.36 36.75,-75.67"
         style="fill:none;stroke:#181f24;stroke-width:30.8962;stroke-linecap:butt;stroke-linejoin:miter;stroke-miterlimit:10;stroke-dasharray:none;stroke-opacity:1"
         transform="matrix(0.13333333,0,0,-0.13333333,0,666.66667)" />
      <path
         id="path19"
         d="m 4549.09,2524.99 c 5.99,-3.59 8.25,-11.14 5.21,-17.42 -18.92,-39.07 -75.32,-183.15 -101.52,-203.89 -26.01,-20.59 -215.79,-58.96 -272.69,-75.05 -9.73,-2.75 -19.97,1.25 -25.49,9.72 -16.79,25.76 -57.1,74.97 -109.58,53.71 -69.84,-28.28 -49.24,-95.22 -38.94,-119.68 5.01,-11.9 10.32,-21.98 14.46,-29.18 4.03,-7.01 1.98,-15.91 -4.6,-20.61 l -115.14,-82.24 c -13.6,-9.71 -32.67,-4.83 -39.92,10.23 l -34.29,71.14 c -2.16,4.49 -2.94,9.52 -2.24,14.46 l 6.05,42.34 c 1.77,12.38 12.3,21.56 24.81,21.56 34.64,-0.01 99.44,4.36 107.1,36.66 7,29.55 -17.61,81.43 -34.82,112.78 -7.84,14.28 -0.39,32.28 15.28,36.75 32.36,9.22 86.75,19.79 145.7,10.1 93.97,-15.44 142.89,-59.21 204.68,-55.35 38.08,2.38 56.69,5.6 65.36,7.71 4.38,1.08 8.93,-0.8 11.4,-4.58 l 9.9,-15.12 c 3.76,-5.75 11.87,-6.54 16.68,-1.64 l 46.27,47.22 c 4.34,4.43 4.99,11.3 1.54,16.46 l -10.17,15.27 c -2.77,4.15 -2.95,9.5 -0.46,13.82 l 67.62,117.51 c 3.76,6.53 12.16,8.71 18.62,4.83 z"
         style="fill:none;stroke:#181f24;stroke-width:30.8962;stroke-linecap:butt;stroke-linejoin:miter;stroke-miterlimit:10;stroke-dasharray:none;stroke-opacity:1"
         transform="matrix(0.13333333,0,0,-0.13333333,0,666.66667)" />
      <path
         id="path20"
         d="m 4481.11,2416.97 59.21,-18.02"
         style="fill:none;stroke:#181f24;stroke-width:30.8962;stroke-linecap:butt;stroke-linejoin:miter;stroke-miterlimit:10;stroke-dasharray:none;stroke-opacity:1"
         transform="matrix(0.13333333,0,0,-0.13333333,0,666.66667)" />
      <path
         id="path21"
         d="m 435.777,3732.23 v 0 c -5.73,17.57 -17.754,32.4 -33.754,41.63 l -41.093,23.73 c -27.653,15.96 -44.684,45.47 -44.684,77.39 v 0 c 0,60.42 48.973,109.39 109.383,109.39 H 625.23 c 22.047,0 36.708,-22.8 27.563,-42.86 l -7.223,-15.84 c -16.109,-35.34 -51.371,-58.02 -90.211,-58.02 H 454.344 c -13.707,0 -20.098,-16.99 -9.789,-26.02 l 97.054,-85.06 c 16.774,-14.7 38.313,-22.8 60.614,-22.8 h 75.257 c 21.805,0 39.481,17.67 39.481,39.48 v 20.69 c 0,15.55 4.945,30.7 14.125,43.25 l 82.344,112.62 c 11.519,15.76 33.058,20.3 49.957,10.54 l 337.793,-195.03 c 11.74,-6.77 26.03,3.32 23.57,16.64 l -5.9,32.02 c -5.78,31.35 -26.98,57.68 -56.37,70.02 v 0 c -21.88,9.19 -33.05,33.63 -25.68,56.19 v 0 c 7.92,24.26 34.22,37.29 58.32,28.9 l 90.16,-31.38 c 20.12,-7.01 33.6,-25.97 33.6,-47.28 v -55.89 c 0,-9.57 3.81,-18.75 10.58,-25.52 v 0 c 6.77,-6.77 10.57,-15.95 10.57,-25.53 v -42.86 c 0,-33.18 -26.9,-60.07 -60.07,-60.07 H 506.973 c -32.414,0 -61.149,20.85 -71.196,51.67 z"
         style="fill:none;stroke:#181f24;stroke-width:30.8962;stroke-linecap:butt;stroke-linejoin:miter;stroke-miterlimit:10;stroke-dasharray:none;stroke-opacity:1"
         transform="matrix(0.13333333,0,0,-0.13333333,0,666.66667)" />
      <path
         id="path22"
         d="m 1033.22,3722.61 v -83.68"
         style="fill:none;stroke:#181f24;stroke-width:30.8962;stroke-linecap:butt;stroke-linejoin:miter;stroke-miterlimit:10;stroke-dasharray:none;stroke-opacity:1"
         transform="matrix(0.13333333,0,0,-0.13333333,0,666.66667)" />
      <path
         id="path23"
         d="m 1541.1,3784.29 c 0,0 48.92,141.6 82.39,150.62 33.47,9.01 132.6,-18.03 212.41,-19.31 79.82,-1.29 189.24,-14.17 216.28,0 27.03,14.16 32.18,59.21 20.59,84.96 -11.58,25.75 -2.57,41.19 14.16,61.79 16.74,20.6 120.84,93.09 136.38,89.67 15.53,-3.41 1.37,-115.41 32.27,-110.27 19.78,3.3 21.09,37.74 19.47,62.09 -0.87,13.18 9.61,24.34 22.82,24.52 l 35.42,0.5 c 17.82,0.24 31.67,-15.78 28.44,-33.31 -6.91,-37.55 -28.18,-98.84 -93.28,-143.91 -100.41,-69.52 -202.11,-88.83 -270.34,-91.4 -43.58,-1.64 -75.6,1.44 -93.06,3.88 -8.26,1.15 -16.44,-2.75 -20.44,-10.07 -4.45,-8.13 -11.67,-16.96 -21.67,-15.7 -18.06,2.29 -31.76,10.2 -53.3,22.64 -21.54,12.43 -133.37,35.3 -155.25,18.56 -21.89,-16.74 -63.08,-84.97 -59.22,-102.99 3.86,-18.02 23.17,-24.46 20.6,-54.07 -2.58,-29.61 -12.88,-63.08 -25.75,-66.94 -12.87,-3.86 -28.32,-15.45 -27.03,-38.62 1.28,-23.17 -2.58,-74.66 20.59,-87.54 23.18,-12.87 39.91,-36.04 23.18,-51.49 -16.74,-15.45 -77.22,-1.59 -86.26,14.16 -9.04,15.74 -1.28,37.33 0,65.65 1.29,28.33 -6.04,159.15 20.6,226.58 z"
         style="fill:none;stroke:#181f24;stroke-width:30.8962;stroke-linecap:butt;stroke-linejoin:miter;stroke-miterlimit:10;stroke-dasharray:none;stroke-opacity:1"
         transform="matrix(0.13333333,0,0,-0.13333333,0,666.66667)" />
      <path
         id="path24"
         d="m 1493.47,3780.42 73.38,-27.03"
         style="fill:none;stroke:#181f24;stroke-width:30.8962;stroke-linecap:butt;stroke-linejoin:miter;stroke-miterlimit:10;stroke-dasharray:none;stroke-opacity:1"
         transform="matrix(0.13333333,0,0,-0.13333333,0,666.66667)" />
      <path
         id="path25"
         d="m 4580.71,4653.48 -15.9,104.77 c -1.71,11.26 -12.25,18.98 -23.5,17.23 l -181.57,-28.34 c -11.34,-1.77 -18.96,-12.59 -16.81,-23.86 l 7.69,-40.38 c 2.11,-11.08 -5.21,-21.75 -16.3,-23.77 l -156.17,-28.49 c -8.24,-1.51 -14.23,-8.69 -14.23,-17.06 v -6.9 c 0,-7.89 -5.33,-14.79 -12.97,-16.78 l -86.44,-22.51 c -12.23,-3.18 -24.18,6.05 -24.18,18.7 v 0 c 0,10.45 -8.32,19.01 -18.77,19.3 l -8.79,0.24 c -10.46,0.3 -18.78,8.85 -18.78,19.31 v 5.42 c 0,11.25 -9.58,20.12 -20.79,19.25 l -100.7,-7.74 c -17.6,-1.36 -32.63,-13.26 -37.98,-30.09 l -32.72,-102.94 c -6.93,-21.82 -1.64,-45.67 13.87,-62.51 l 77.44,-84.08 c 16.35,-17.75 45.16,-14.9 57.71,5.72 l 10.99,18.05 63.54,21.51 c 12.7,4.29 22.7,14.23 27.07,26.9 l 9.54,27.61 c 5.1,14.77 15.97,26.85 30.11,33.48 l 55.6,26.06 c 44.17,20.71 90.49,36.47 138.11,47.01 l 279.04,61.73 c 10.57,2.34 17.51,12.47 15.89,23.16 z"
         style="fill:none;stroke:#181f24;stroke-width:30.8962;stroke-linecap:butt;stroke-linejoin:miter;stroke-miterlimit:10;stroke-dasharray:none;stroke-opacity:1"
         transform="matrix(0.13333333,0,0,-0.13333333,0,666.66667)" />
      <path
         id="path26"
         d="m 4462.58,4657.65 25.75,-94.52"
         style="fill:none;stroke:#181f24;stroke-width:30.8962;stroke-linecap:butt;stroke-linejoin:miter;stroke-miterlimit:10;stroke-dasharray:none;stroke-opacity:1"
         transform="matrix(0.13333333,0,0,-0.13333333,0,666.66667)" />
      <path
         id="path27"
         d="m 537.941,3337.14 c 0,0 142.754,29.04 249.215,24.2 106.461,-4.84 215.344,-2.42 273.414,19.36 40.56,15.21 113.02,31.6 153,40.1 12.11,2.58 22.08,-9.5 17.34,-20.94 l -42.11,-101.43 c 0,0 -239.534,-404.07 -268.57,-411.32 -29.035,-7.26 -101.621,84.68 -58.07,159.69 43.555,75 152.43,183.88 91.945,222.6 -60.488,38.71 -222.597,16.93 -222.597,-29.04 0,-45.97 62.906,-96.78 31.453,-154.85 C 731.508,3027.44 612.945,2725 583.91,2717.74 c -29.031,-7.26 -157.269,7.26 -159.687,50.81 -2.422,43.55 68.644,560.58 113.718,568.59 z"
         style="fill:none;stroke:#181f24;stroke-width:30.8962;stroke-linecap:butt;stroke-linejoin:miter;stroke-miterlimit:10;stroke-dasharray:none;stroke-opacity:1"
         transform="matrix(0.13333333,0,0,-0.13333333,0,666.66667)" />
      <path
         id="path28"
         d="m 450.836,3187.13 65.328,-4.84"
         style="fill:none;stroke:#181f24;stroke-width:30.8962;stroke-linecap:butt;stroke-linejoin:miter;stroke-miterlimit:10;stroke-dasharray:none;stroke-opacity:1"
         transform="matrix(0.13333333,0,0,-0.13333333,0,666.66667)" />
      <path
         id="path29"
         d="m 3916.55,2958.77 -147.48,-132.22 c -7.89,-7.08 -20.21,0.12 -17.93,10.46 l 12.76,57.92 c 1.5,6.83 2.26,13.81 2.26,20.8 v 0 c 0,26.19 10.62,51.25 29.43,69.47 l 67.75,65.59 c 7.14,6.92 12.07,15.81 14.15,25.53 v 0 c 4.3,20.03 20.33,35.43 40.51,38.93 v 0 c 36.63,6.34 71.06,21.88 100.05,45.16 v 0 c 45.84,36.81 96.51,67.16 150.6,90.22 l 206.74,88.12 c 15.43,6.57 33.33,2.48 44.37,-10.13 v 0 c 10.56,-12.08 27.47,-16.39 42.53,-10.86 l 33.51,12.31 c 15.36,5.64 32.6,1.03 43.1,-11.52 l 80.4,-96.14 c 14.97,-17.91 12.09,-44.66 -6.35,-58.96 v 0 c -16.85,-13.07 -40.88,-11.13 -55.4,4.48 l -13.22,14.22 c -18.39,19.76 -46.05,28.02 -72.26,21.57 l -117.87,-29 c -31.71,-7.8 -52.3,-38.44 -47.53,-70.75 l 0.81,-5.48 c 3.77,-25.53 22.64,-46.22 47.72,-52.31 l 93.28,-22.64 c 23.77,-5.77 39.18,-28.77 35.46,-52.95 v 0 c -3.22,-20.97 7.98,-41.51 27.35,-50.17 l 24.07,-10.76 c 32.13,-14.37 44.96,-53.24 27.71,-83.91 v 0 c -16.32,-29.02 -53.2,-39.12 -82.02,-22.47 l -48.03,27.72 c -32.88,18.98 -61.45,44.59 -83.92,75.19 v 0 c -36.27,49.41 -88.06,85.24 -147.09,101.77 v 0 c -23.48,6.57 -48.7,0.87 -67.08,-15.16 l -35.25,-30.75 c -10.43,-9.1 -23.25,-15.01 -36.94,-17.04 l -91.42,-13.58 c -10.55,-1.56 -20.43,5.57 -22.26,16.08 v 0 c -2.66,15.21 -21.01,21.57 -32.51,11.26 z"
         style="fill:none;stroke:#181f24;stroke-width:30.8962;stroke-linecap:butt;stroke-linejoin:miter;stroke-miterlimit:10;stroke-dasharray:none;stroke-opacity:1"
         transform="matrix(0.13333333,0,0,-0.13333333,0,666.66667)" />
      <path
         id="path30"
         d="m 3829.67,2922.8 39.91,-50.21"
         style="fill:none;stroke:#181f24;stroke-width:30.8962;stroke-linecap:butt;stroke-linejoin:miter;stroke-miterlimit:10;stroke-dasharray:none;stroke-opacity:1"
         transform="matrix(0.13333333,0,0,-0.13333333,0,666.66667)" />
      <path
         id="path31"
         d="m 794.523,2399.21 v 0 c 4.239,-8.59 14.852,-11.8 23.149,-7.02 l 109.539,63.25 c 37.25,21.5 84.349,14.91 114.259,-16 l 31.02,-32.06 c 6.68,-6.9 17.19,-8.38 25.51,-3.57 v 0 c 8.73,5.03 19.8,3.14 26.36,-4.51 l 117.78,-137.31 c 11.02,-12.86 10.23,-32.05 -1.82,-43.94 l -42.76,-42.2 c -10.34,-10.2 -26.2,-12.24 -38.78,-4.97 -46.23,26.71 -156.56,88.7 -213.964,106.05 -48.582,14.69 -100.882,19.71 -130.957,21.42 -15.23,0.87 -29.562,-7.09 -36.828,-20.5 v 0 c -6.64,-12.26 -19.293,-20.08 -33.234,-20.54 l -19.289,-0.64 c -6.695,-0.22 -13.227,-2.15 -18.965,-5.61 L 486.965,2119.38 c -24.281,-14.62 -55.766,-7.63 -71.567,15.91 v 0 c -17.156,25.55 -9.093,60.29 17.567,75.67 l 338.41,195.27 c 8.297,4.79 18.906,1.57 23.148,-7.02 z"
         style="fill:none;stroke:#181f24;stroke-width:30.8962;stroke-linecap:butt;stroke-linejoin:miter;stroke-miterlimit:10;stroke-dasharray:none;stroke-opacity:1"
         transform="matrix(0.13333333,0,0,-0.13333333,0,666.66667)" />
      <path
         id="path32"
         d="m 581.746,2341.46 37.762,-60.86"
         style="fill:none;stroke:#181f24;stroke-width:30.8962;stroke-linecap:butt;stroke-linejoin:miter;stroke-miterlimit:10;stroke-dasharray:none;stroke-opacity:1"
         transform="matrix(0.13333333,0,0,-0.13333333,0,666.66667)" />
      <path
         id="path33"
         d="m 4147.38,3868.7 12.62,-54.99 c 4.59,-20.01 17.04,-37.33 34.54,-48.07 l 76.34,-46.82 c 13.35,-8.18 16.6,-26.16 6.97,-38.5 l -20.74,-26.57 c -6.56,-8.4 -0.57,-20.66 10.08,-20.66 h 52.66 c 10.47,0 19.94,6.23 24.09,15.85 l 133.93,310.68 c 12.17,28.22 -8.52,59.68 -39.26,59.68 v 0 c -28.97,0 -49.54,28.21 -40.7,55.79 v 0 c 6.48,20.2 26.8,32.59 47.73,29.11 l 80.99,-13.5 c 41.88,-6.98 76.6,-36.29 90.52,-76.41 l 60.37,-174.08 c 12.5,-36.05 5.95,-75.97 -17.42,-106.13 v 0 c -10.37,-13.37 -23.6,-24.24 -38.74,-31.81 l -176.06,-88.03 c -11.29,-5.64 -20.9,-14.13 -27.9,-24.63 v 0 c -14.6,-21.89 -39.92,-34.16 -66.15,-32.04 l -10.93,0.88 c -20.11,1.63 -39.98,-5.2 -54.85,-18.84 l -2.19,-2.01 c -27.06,-24.83 -68.42,-25.5 -96.27,-1.55 l -22.44,19.3 c -9.54,8.2 -21.05,13.78 -33.4,16.19 l -408.48,79.63 c -22.99,4.48 -34.11,30.83 -21.29,50.43 l 106.85,163.34 c 8.49,12.98 4.33,30.43 -9.1,38.19 v 0 c -14.16,8.17 -17.87,26.96 -7.87,39.9 l 39.67,51.36 c 9.09,11.78 24.74,16.36 38.74,11.33 l 229,-82.16 c 24.52,-8.8 42.87,-29.47 48.69,-54.86 z"
         style="fill:none;stroke:#181f24;stroke-width:30.8962;stroke-linecap:butt;stroke-linejoin:miter;stroke-miterlimit:10;stroke-dasharray:none;stroke-opacity:1"
         transform="matrix(0.13333333,0,0,-0.13333333,0,666.66667)" />
      <path
         id="path34"
         d="m 4057.32,3971.24 -22.31,-60.08"
         style="fill:none;stroke:#181f24;stroke-width:30.8962;stroke-linecap:butt;stroke-linejoin:miter;stroke-miterlimit:10;stroke-dasharray:none;stroke-opacity:1"
         transform="matrix(0.13333333,0,0,-0.13333333,0,666.66667)" />
      <path
         id="path35"
         d="m 2280.35,2522.21 -34.68,11.82 c -4.58,1.56 -8.74,4.16 -12.15,7.59 l -21.68,21.85 c -8.95,9.01 -24.36,3.5 -25.56,-9.15 l -7.93,-83.84 c -0.7,-7.43 0.47,-14.92 3.41,-21.78 l 36.79,-85.83 c 3.32,-7.76 4.54,-16.26 3.52,-24.64 v 0 c -3,-24.78 -24.51,-43.1 -49.45,-42.12 l -204.05,8 c -9.45,0.37 -18.6,3.41 -26.39,8.76 l -153.41,105.4 c -16.12,11.08 -38.36,3.78 -44.79,-14.69 l -26.9,-77.34 c -1.57,-4.52 -7.25,-5.95 -10.78,-2.72 l -56.15,51.3 c -13.76,12.58 -35.58,9.48 -45.3,-6.43 l -109.2,-178.72 c -4.78,-7.82 -2.92,-17.97 4.32,-23.59 l 38.85,-30.17 c 6.16,-4.79 8.54,-13 5.88,-20.34 l -6.58,-18.14 c -2.68,-7.41 -0.23,-15.7 6.05,-20.46 l 82.87,-62.83 c 6.29,-4.76 15.4,-1.79 17.66,5.77 l 70.92,237.04 c 1.51,5.05 8,6.43 11.44,2.43 l 40.78,-47.51 c 10.22,-11.91 25.13,-18.76 40.83,-18.76 h 66.16 c 8.33,0 15.09,-6.76 15.09,-15.1 v -21.3 c 0,-8.34 6.76,-15.1 15.1,-15.1 h 110.44 c 12.07,0 21.85,9.78 21.85,21.85 v 21.05 c 0,11.38 9.23,20.61 20.61,20.61 h 41.75 c 9.62,0 17.97,-6.66 20.1,-16.05 l 7.77,-34.22 c 2.02,-8.87 9.61,-15.38 18.7,-16 l 121.98,-8.36 c 8.32,-0.57 16.48,2.47 22.42,8.33 l 36.21,35.77 c 6.35,6.27 9.47,15.11 8.46,23.98 l -33.91,297.5 c -1.38,12.05 -9.57,22.23 -21.05,26.14 z"
         style="fill:none;stroke:#181f24;stroke-width:30.8962;stroke-linecap:butt;stroke-linejoin:miter;stroke-miterlimit:10;stroke-dasharray:none;stroke-opacity:1"
         transform="matrix(0.13333333,0,0,-0.13333333,0,666.66667)" />
      <path
         id="path36"
         d="m 2290.57,2304.68 72.09,8.58"
         style="fill:none;stroke:#181f24;stroke-width:30.8962;stroke-linecap:butt;stroke-linejoin:miter;stroke-miterlimit:10;stroke-dasharray:none;stroke-opacity:1"
         transform="matrix(0.13333333,0,0,-0.13333333,0,666.66667)" />
      <path
         id="path37"
         d="m 2588.91,1380.49 v 23 c 0,9.09 -4.42,17.61 -11.85,22.84 l -11.69,8.22 c -11.25,7.92 -15.06,22.86 -8.97,35.19 l 156.22,316.76 c 4.02,8.14 1,17.99 -6.88,22.5 l -19.48,11.13 c -10.63,6.08 -11.67,21.01 -1.97,28.5 l 40.63,31.36 c 12.22,9.44 29.95,0.72 29.95,-14.72 V 1718.4 c 0,-14.76 8.82,-28.09 22.4,-33.87 l 34.6,-14.72 c 11.26,-4.79 19.4,-14.86 21.73,-26.87 v 0 c 3.38,-17.51 18.84,-30.07 36.67,-29.81 l 41.94,0.62 c 22,0.32 42.37,-11.54 52.95,-30.83 v 0 c 6.44,-11.74 16.64,-20.95 28.97,-26.16 l 71.55,-30.23 c 15,-6.34 31.09,-9.72 47.38,-9.96 l 170.09,-2.48 c 14.01,-0.21 26.06,-9.97 29.17,-23.64 l 14.75,-64.91 c 1.64,-7.24 10.74,-9.65 15.76,-4.18 l 18.25,19.91 c 2.91,3.18 7.65,3.91 11.39,1.75 l 26.5,-15.3 c 1.46,-0.84 3.12,-1.27 4.8,-1.23 l 26.16,0.58 c 9.53,0.21 15.43,-10.29 10.31,-18.32 l -17.43,-27.3 c -11.49,-18 -31.36,-28.89 -52.72,-28.89 h -753.25 c -15.43,0 -27.93,12.5 -27.93,27.93 z"
         style="fill:none;stroke:#181f24;stroke-width:30.8962;stroke-linecap:butt;stroke-linejoin:miter;stroke-miterlimit:10;stroke-dasharray:none;stroke-opacity:1"
         transform="matrix(0.13333333,0,0,-0.13333333,0,666.66667)" />
      <path
         id="path38"
         d="m 3089.2,1394.05 v -81.39"
         style="fill:none;stroke:#181f24;stroke-width:30.8962;stroke-linecap:butt;stroke-linejoin:miter;stroke-miterlimit:10;stroke-dasharray:none;stroke-opacity:1"
         transform="matrix(0.13333333,0,0,-0.13333333,0,666.66667)" />
      <path
         id="path39"
         d="m 3027.4,2294.09 h -375.98 c -8.58,0 -16.66,4.09 -21.74,11.02 l -16.75,22.85 c -7.54,10.27 -6.85,24.42 1.65,33.91 v 0 c 8.5,9.51 22.52,11.76 33.57,5.38 l 5.53,-3.2 c 14.82,-8.56 33.79,-2.9 41.49,12.38 v 0 c 4.83,9.58 4.14,21.01 -1.81,29.94 v 0 c -21.47,32.21 -23.05,73.75 -4.07,107.5 v 0 c 19.63,34.89 53.23,59.75 92.35,68.3 l 185.78,40.64 c 15.12,3.31 30.04,-6.26 33.35,-21.37 l 34.25,-156.59 c 4.91,-22.44 20.35,-41.13 41.47,-50.17 l 16.48,-7.07 c 27.59,-11.82 59.64,-5.05 80.08,16.93 v 0 c 20.69,22.24 53.21,28.88 80.96,16.55 l 13.1,-5.82 c 11.62,-5.17 21.65,-13.36 29.03,-23.72 l 87.28,-122.46 c 4.89,-6.87 5.88,-15.78 2.61,-23.55 l -24.49,-58.33 c -3.81,-9.07 -12.64,-14.96 -22.48,-14.91 -66.64,0.32 -309.23,3.95 -311.66,-0.08 -3.53,-5.83 55.89,-49.37 78.76,-65.82 5.45,-3.92 8.41,-10.42 7.83,-17.11 l -7.05,-80.28 c -0.37,-4.27 -2.56,-8.18 -6.01,-10.73 l -52.77,-39.05 c -6,-4.44 -14.36,-3.79 -19.59,1.54 l -136.74,139.01 c -11.08,11.27 -28.46,13.43 -41.97,5.23 l -62.13,-37.72 c -7.05,-4.28 -15.41,-5.86 -23.54,-4.44 l -22.47,3.92 c -44.65,7.8 -80.86,40.53 -93.11,84.17 v 0 c -3.88,13.82 5.61,27.81 19.88,29.32 l 597.87,63.27 c 13.02,1.37 22.42,13.12 20.9,26.13 v 0 c -1.37,11.72 -11.21,20.62 -23.02,20.8 z"
         style="fill:none;stroke:#181f24;stroke-width:30.8962;stroke-linecap:butt;stroke-linejoin:miter;stroke-miterlimit:10;stroke-dasharray:none;stroke-opacity:1"
         transform="matrix(0.13333333,0,0,-0.13333333,0,666.66667)" />
      <path
         id="path40"
         d="m 3025.68,2326.7 v -61.79"
         style="fill:none;stroke:#181f24;stroke-width:30.8962;stroke-linecap:butt;stroke-linejoin:miter;stroke-miterlimit:10;stroke-dasharray:none;stroke-opacity:1"
         transform="matrix(0.13333333,0,0,-0.13333333,0,666.66667)" />
      <path
         id="path41"
         d="m 1253.32,2038.34 6.34,-11.35 c 9.84,-17.59 5.06,-39.76 -11.17,-51.73 l -13.96,-10.3 c -8.05,-5.94 -22.78,-10.1 -32.74,-9.25 l -31.45,2.67 c -18.23,1.55 -35.59,-7.91 -44.18,-24.06 -12.23,-23.01 -28.58,-52.82 -32.11,-53.93 -18.52,-5.82 -45.2,-0.55 -65.41,5.34 -16.88,4.93 -34.855,-2.77 -42.601,-18.55 l -16.351,-33.31 c -10.954,-22.3 -39.829,-28.59 -59.059,-12.85 l -0.723,0.59 c -26.797,21.92 -65.328,21.95 -92.156,0.07 v 0 c -16.953,-13.83 -26.789,-34.56 -26.789,-56.44 v -21.91 c 0,-12.03 2.977,-23.87 8.672,-34.47 l 55.597,-103.47 c 3.094,-5.76 4.086,-12.42 2.805,-18.83 l -12.363,-61.81 c -2.77,-13.84 -15.363,-23.48 -29.445,-22.55 l -105.149,7.01 c -9.254,0.62 -18.199,3.6 -25.98,8.66 l -81.2,52.78 c -11.96,7.77 -27.996,3.89 -35.074,-8.5 v 0 c -5.816,-10.18 -3.715,-23.04 5.039,-30.85 l 72.254,-64.37 c 10.875,-9.69 14.285,-25.27 8.446,-38.61 l -4.727,-10.81 c -8.199,-18.74 -18.59,-36.44 -30.957,-52.73 v 0 c -38.649,-50.9 -94.777,-85.68 -157.559,-97.64 l -17.472,-3.33 c -27.489,-5.24 -48.45,-27.63 -51.852,-55.41 v 0 c -3.445,-28.14 11.922,-55.22 37.844,-66.69 l 27.64,-12.24 c 26.907,-11.91 58.461,-4.06 76.653,19.07 L 727.5,1394.37 c 15.313,19.47 26.828,41.64 33.945,65.36 l 22.063,73.55 c 8.414,28.04 4.648,58.33 -10.375,83.46 l -73.481,122.91 c -5.101,8.54 -4.492,19.31 1.536,27.22 l 15.757,20.66 c 6.371,8.36 6.418,19.93 0.114,28.34 l -0.368,0.49 c -9.289,12.38 -5.078,30.03 8.782,36.72 81.48,39.31 328.247,158.6 440.457,212.85 31.86,15.4 70.12,3.29 87.39,-27.59 z"
         style="fill:none;stroke:#181f24;stroke-width:30.8962;stroke-linecap:butt;stroke-linejoin:miter;stroke-miterlimit:10;stroke-dasharray:none;stroke-opacity:1"
         transform="matrix(0.13333333,0,0,-0.13333333,0,666.66667)" />
      <path
         id="path42"
         d="m 986.625,2025.22 30.215,-64.74"
         style="fill:none;stroke:#181f24;stroke-width:30.8962;stroke-linecap:butt;stroke-linejoin:miter;stroke-miterlimit:10;stroke-dasharray:none;stroke-opacity:1"
         transform="matrix(0.13333333,0,0,-0.13333333,0,666.66667)" />
      <path
         id="path43"
         d="M 642.148,886.93 758.531,659.98 c 9.817,-19.14 33.016,-27.082 52.5,-17.98 l 80.567,37.66 c 14.648,6.852 23.711,21.77 22.996,37.93 -1.5,33.711 3.867,90.73 53.453,110.769 72.163,29.18 119.763,16.891 184.253,49.141 36.9,18.449 56.2,38.41 65.97,52.109 7.11,9.973 18.73,15.641 30.93,14.633 28.77,-2.371 76.83,-3.461 84.28,14.637 10.75,26.101 6.14,44.521 -75.23,44.521 H 541.426 c -19.403,0 -32.809,-19.4 -25.942,-37.548 v 0 c 4.243,-11.211 0.832,-23.813 -8.484,-31.364 -19.125,-15.5 -52.02,-44.789 -77.895,-81.558 -38.894,-55.27 -83.933,-178.11 -102.359,-257.95 -12.129,-52.55 -8.293,-129.039 -4.254,-175.199 1.754,-20.019 21.106,-33.679 40.508,-28.422 14.008,3.801 29.121,7.082 39.492,7.082 24.567,0 65.512,-28.66 81.891,-8.191 14.055,17.57 -54.797,145.172 -74.625,181.039 -3.379,6.121 -4.512,13.191 -3.246,20.063 l 9.691,52.617 c 1.684,9.133 7.477,16.992 15.703,21.301 l 19.551,10.25 c 16.301,8.55 36.387,0.679 42.543,-16.661 l 7.695,-21.679 c 6.047,-17.028 25.582,-24.989 41.813,-17.028 l 43.937,21.528 c 16.067,7.879 21.821,27.91 12.383,43.109 l -76.18,122.742 c -9.531,15.348 -5.972,35.41 8.254,46.551 l 56.899,44.566 c 17.515,13.711 43.195,8.071 53.347,-11.718 z"
         style="fill:none;stroke:#181f24;stroke-width:30.8962;stroke-linecap:butt;stroke-linejoin:miter;stroke-miterlimit:10;stroke-dasharray:none;stroke-opacity:1"
         transform="matrix(0.13333333,0,0,-0.13333333,0,666.66667)" />
      <path
         id="path44"
         d="m 689.109,693.141 77.793,43.097"
         style="fill:none;stroke:#181f24;stroke-width:30.8962;stroke-linecap:butt;stroke-linejoin:miter;stroke-miterlimit:10;stroke-dasharray:none;stroke-opacity:1"
         transform="matrix(0.13333333,0,0,-0.13333333,0,666.66667)" />
      <path
         id="path45"
         d="M 2076.36,753.57 1680.28,545.949 c -15.75,-8.258 -24.52,-25.597 -21.83,-43.179 v 0 c 2.69,-17.579 -6.08,-34.93 -21.83,-43.18 l -111.41,-58.399 c -7.72,-4.05 -14.75,-9.269 -20.85,-15.492 l -61.37,-62.539 c -5.72,-5.828 -14.53,-7.328 -21.86,-3.73 l -20.53,10.09 c -10.01,4.921 -22.11,0.992 -27.31,-8.872 l -12.71,-24.089 c -4.83,-9.129 -17.17,-10.879 -24.34,-3.438 l -19.59,20.34 c -14.31,14.859 -12.57,38.859 3.73,51.5 v 0 c 5.82,4.508 12.93,7.059 20.29,7.269 l 53.35,1.489 c 14.99,0.429 29.29,6.39 40.14,16.742 L 1804.28,743.5 c 5.16,4.93 7.12,12.332 5.06,19.16 l -10.87,36.09 c -2.2,7.309 3.53,14.582 11.16,14.148 v 0 c 16.5,-0.957 32.95,2.594 47.58,10.274 l 34.64,18.148 c 12.75,6.692 24.4,15.289 34.54,25.5 l 169.51,170.72 c 25.15,25.33 62.5,34.17 96.33,22.8 l 105.81,-35.55 c 13.86,-4.66 24.88,-15.32 30,-29.02 l 3.83,-10.27 c 7.5,-20.078 0.93,-42.711 -16.17,-55.648 v 0 c -21.62,-16.372 -52.47,-11.832 -68.46,10.07 l -45.09,61.748 c -11.64,15.96 -35.7,15.16 -46.27,-1.53 v 0 c -2.46,-3.902 -3.93,-8.339 -4.26,-12.941 l -3.46,-47.449 c -1.49,-20.449 -13.17,-38.789 -31.06,-48.801 l -63.73,-35.629 c -12.93,-7.23 -20.62,-21.172 -19.83,-35.961 v 0 c 0.73,-13.73 8.67,-26.05 20.87,-32.398 l 21.91,-11.391 c 8.9,-4.621 8.92,-17.34 0.04,-22 z"
         style="fill:none;stroke:#181f24;stroke-width:30.8962;stroke-linecap:butt;stroke-linejoin:miter;stroke-miterlimit:10;stroke-dasharray:none;stroke-opacity:1"
         transform="matrix(0.13333333,0,0,-0.13333333,0,666.66667)" />
      <path
         id="path46"
         d="m 1927.14,711.051 27.73,-52.903"
         style="fill:none;stroke:#181f24;stroke-width:30.8962;stroke-linecap:butt;stroke-linejoin:miter;stroke-miterlimit:10;stroke-dasharray:none;stroke-opacity:1"
         transform="matrix(0.13333333,0,0,-0.13333333,0,666.66667)" />
      <path
         id="path47"
         d="m 3188.42,905.43 133.79,6.832 c 13.72,0.699 27.24,3.617 40.04,8.636 l 138.33,54.293 c 11.66,4.571 24.88,-0.453 30.56,-11.609 l 11.43,-22.48 c 6.18,-12.153 1.17,-27.012 -11.11,-32.93 l -59.21,-28.531 c -7.94,-3.832 -15.08,-9.141 -21.04,-15.641 l -91.52,-100.02 c -5.87,-6.41 -12.8,-11.738 -20.5,-15.761 l -102.88,-53.668 c -8.21,-4.281 -18.33,-0.699 -22.02,7.789 v 0 c -2.67,6.14 -8.89,9.961 -15.58,9.57 L 2906.3,694.641 c -1.39,-0.082 -2.78,0.07 -4.12,0.441 l -29.12,8.09 c -5.57,1.547 -11.47,-0.883 -14.33,-5.902 l -24.39,-42.68 c -1.5,-2.621 -2.01,-5.68 -1.44,-8.649 l 27.12,-140.621 c 1.57,-8.14 -0.03,-16.582 -4.49,-23.578 l -22.35,-35.121 c -6.29,-9.891 -17.43,-15.629 -29.13,-15 l -133.36,7.16 c -10.46,0.571 -20.96,-0.031 -31.29,-1.761 l -162.85,-27.301 c -9.89,-1.649 -19.68,3.461 -23.97,12.523 v 0 c -4.25,8.969 -2.09,19.68 5.31,26.297 l 98.81,88.391 c 9.16,8.191 13.27,20.629 10.8,32.672 l -2.99,14.57 c -1.34,6.508 -0.76,13.269 1.65,19.457 l 90.64,232.93 c 1.72,4.421 4.9,8.132 9.01,10.5 l 56.95,32.882 c 4.55,2.629 7.95,6.879 9.5,11.899 l 4.94,15.941 c 2.17,7.02 7.83,12.36 14.97,14.09 35.09,8.551 143.31,32.348 225.34,23.027 99.25,-11.277 162.41,-47.367 210.91,-39.468 z"
         style="fill:none;stroke:#181f24;stroke-width:30.8962;stroke-linecap:butt;stroke-linejoin:miter;stroke-miterlimit:10;stroke-dasharray:none;stroke-opacity:1"
         transform="matrix(0.13333333,0,0,-0.13333333,0,666.66667)" />
      <path
         id="path48"
         d="M 2904.09,976.871 V 926.109"
         style="fill:none;stroke:#181f24;stroke-width:30.8962;stroke-linecap:butt;stroke-linejoin:miter;stroke-miterlimit:10;stroke-dasharray:none;stroke-opacity:1"
         transform="matrix(0.13333333,0,0,-0.13333333,0,666.66667)" />
      <path
         id="path49"
         d="m 4107.22,563.719 -90.84,-87.258 c -11.92,-11.449 -24.76,-21.902 -38.38,-31.262 l -78.82,-54.09 c -3.63,-2.488 -8.13,1.61 -6,5.461 l 13.76,24.762 c 2.72,4.898 -0.2,11.02 -5.72,11.977 l -33.89,5.89 c -3.67,0.641 -7.33,-1.207 -8.99,-4.539 l -6.09,-12.16 c -2.34,-4.699 0.13,-10.379 5.17,-11.859 v 0 c 4.91,-1.45 7.42,-6.911 5.3,-11.582 l -34.64,-76.379 c -2.94,-6.481 -1.48,-14.098 3.63,-19.039 l 10.63,-10.282 c 7.49,-7.238 6.66,-19.488 -1.74,-25.648 l -14.75,-10.82 c -1.76,-1.289 -3.76,-2.219 -5.87,-2.75 l -10.72,-2.68 c -14.25,-3.57 -27.22,-11.051 -37.43,-21.602 l -14.61,-15.097 c -2,-2.063 -4.99,-2.821 -7.73,-1.961 l -26.48,8.371 c -5.32,1.68 -7.06,8.328 -3.25,12.398 l 33.65,35.891 c 5.38,5.738 8.45,13.277 8.61,21.16 l 0.68,35.121 c 0.13,6.258 2.04,12.348 5.51,17.559 l 10.28,15.418 c 8.43,12.652 10.27,28.582 4.93,42.82 v 0 c -4.95,13.211 -1.13,28.102 9.57,37.293 l 58.17,49.969 c 7.06,6.058 16.38,8.84 25.61,7.609 l 51.03,-6.75 c 6.73,-0.89 13.57,0.469 19.45,3.86 l 42.5,24.539 c 5.22,3.011 7.75,9.171 6.16,14.992 v 0 c -1.73,6.347 -7.86,10.469 -14.4,9.679 l -44.89,-5.46 c -16.91,-2.059 -33.96,2.5 -47.58,12.718 l -79.57,59.672 c -17.34,13.012 -25.02,35.262 -19.39,56.199 l 20.62,76.68 c 3.7,13.762 1.7,28.441 -5.54,40.711 l -23.91,40.551 c -9.01,15.289 -4.38,34.969 10.51,44.629 l 61.97,40.218 c 10.32,6.692 16.97,17.762 18.05,30.024 l 1.9,21.617 c 1.22,14.02 9.74,26.352 22.41,32.481 l 67.92,32.81 c 5.49,2.65 6.88,9.85 2.76,14.35 l -22.15,24.23 c -3.06,3.34 -3.2,8.42 -0.33,11.92 l 38.57,47.14 c 8.69,10.62 24.89,10.71 33.69,0.2 l 9.26,-11.04 c 5.17,-6.17 13.31,-9 21.19,-7.37 l 42.05,8.7 c 6.03,1.24 10.78,5.91 12.14,11.92 l 2.82,12.49 c 1.61,7.16 7.98,12.25 15.32,12.25 h 20.7 c 5.27,0 10.44,1.42 14.97,4.12 l 29.74,17.72 c 7.28,4.33 16.58,-0.49 17.23,-8.93 l 2.51,-32.58 c 1.06,-13.88 7.51,-26.78 17.97,-35.96 l 14.38,-12.63 c 9.73,-8.54 22.22,-13.25 35.16,-13.25 v 0 c 10.22,0 20.23,-2.93 28.82,-8.46 l 59.6,-38.31 c 3.49,-2.25 7.64,-3.27 11.78,-2.89 l 16.34,1.47 c 3.39,0.3 6.63,1.53 9.38,3.55 l 40.73,29.91 c 5.02,3.68 11.95,3.25 16.47,-1.03 v 0 c 4.65,-4.41 5.35,-11.56 1.65,-16.79 l -16.36,-23.07 c -5.19,-7.32 -2.67,-17.529 5.32,-21.599 l 20.87,-10.621 c 5.91,-3.008 13.11,-1.68 17.56,3.25 l 6.39,7.062 c 5.71,6.328 14.78,8.379 22.65,5.137 v 0 c 8.91,-3.668 19.18,-0.528 24.5,7.511 l 29.77,44.92 c 4.13,6.24 12.12,8.66 19.03,5.77 l 14.52,-6.08 c 5.81,-2.43 9.58,-8.1 9.58,-14.39 v -8.82 c 0,-5.68 3.21,-10.88 8.3,-13.42 l 10.2,-5.1 c 5.09,-2.54 8.3,-7.739 8.3,-13.419 v -21.722 c 0,-3.77 1.41,-7.387 3.96,-10.16 l 16.73,-18.207 c 4.59,-5 5.26,-12.454 1.63,-18.18 l -15.77,-24.934 c -2.51,-3.976 -6.89,-6.386 -11.6,-6.386 h -37.88 c -7.36,0 -13.41,-5.813 -13.71,-13.161 l -0.68,-16.5 c -0.27,-6.64 -5.12,-12.199 -11.66,-13.359 l -13.77,-2.453 c -8.04,-1.43 -15.05,-6.27 -19.21,-13.309 -8.84,-14.941 -23.82,-39.949 -26.16,-41.699 -2.72,-2.051 -60.87,-9.082 -82.46,-11.629 -5.03,-0.594 -10.02,1.227 -13.51,4.899 l -15.65,16.5 c -5.23,5.507 -14.1,5.269 -19.03,-0.52 l -10.63,-12.492 c -4.81,-5.649 -3.83,-14.18 2.14,-18.59 l 10,-7.391 c 2.82,-2.078 4.12,-5.656 3.3,-9.066 l -4.76,-19.832 c -0.38,-1.602 -0.31,-3.281 0.22,-4.84 l 7.97,-23.551 c 1.8,-5.308 -1.79,-10.91 -7.36,-11.5 l -32.31,-3.41 c -9.85,-1.051 -19.43,-3.82 -28.3,-8.211 L 4181.35,615.77 c -27.23,-13.45 -52.23,-31.008 -74.13,-52.051 z"
         style="fill:none;stroke:#181f24;stroke-width:30.8962;stroke-linecap:butt;stroke-linejoin:miter;stroke-miterlimit:10;stroke-dasharray:none;stroke-opacity:1"
         transform="matrix(0.13333333,0,0,-0.13333333,0,666.66667)" />
      <path
         id="path50"
         d="m 3965.49,468.27 35.5,-45.051"
         style="fill:none;stroke:#181f24;stroke-width:30.8962;stroke-linecap:butt;stroke-linejoin:miter;stroke-miterlimit:10;stroke-dasharray:none;stroke-opacity:1"
         transform="matrix(0.13333333,0,0,-0.13333333,0,666.66667)" />
      <path
         id="path51"
         d="m 2601.04,253.102 c -4.32,-4.43 -8.03,-9.313 -11.08,-14.532 l -4.65,2.41 c -0.67,2.969 -3.5,5.02 -6.59,4.661 -3.31,-0.391 -5.68,-3.391 -5.29,-6.7 0.39,-3.312 3.39,-5.679 6.7,-5.293 0.65,0.082 1.26,0.262 1.83,0.532 l 4.52,-2.348 c -2.51,-5.543 -4.33,-11.383 -5.4,-17.434 l 7.47,-1.316 c 2.3,13.059 8.49,25.066 17.92,34.727 l -5.43,5.293"
         style="fill:#181f24;fill-opacity:1;fill-rule:nonzero;stroke:none"
         transform="matrix(0.13333333,0,0,-0.13333333,0,666.66667)" />
      <path
         id="path52"
         d="m 2655.92,276.121 c -1.71,0 -3.41,-0.062 -5.1,-0.172 l -0.73,6.262 c 1.87,1.488 2.95,3.891 2.65,6.449 -0.46,3.93 -4.02,6.738 -7.95,6.281 -3.93,-0.472 -6.74,-4.031 -6.28,-7.961 0.3,-2.539 1.89,-4.609 4.05,-5.628 l 0.73,-6.25 c -7.14,-1.161 -14.03,-3.321 -20.6,-6.461 l 3.27,-6.832 c 9.34,4.461 19.42,6.73 29.96,6.73 4.96,0 9.93,-0.527 14.75,-1.578 l 1.6,7.41 c -5.35,1.16 -10.85,1.75 -16.35,1.75"
         style="fill:#181f24;fill-opacity:1;fill-rule:nonzero;stroke:none"
         transform="matrix(0.13333333,0,0,-0.13333333,0,666.66667)" />
      <path
         id="path53"
         d="m 2721.94,250.648 c 3.31,0.403 5.66,3.411 5.26,6.723 -0.41,3.309 -3.42,5.66 -6.73,5.258 -3.09,-0.379 -5.35,-3.039 -5.29,-6.09 l -4.16,-3.629 c -4.18,4.301 -8.9,8.121 -14.08,11.391 l -4.04,-6.41 c 11.34,-7.149 20.2,-17.27 25.63,-29.262 l 6.91,3.133 c -2.51,5.539 -5.68,10.718 -9.42,15.449 l 4.02,3.508 c 0.61,-0.117 1.25,-0.149 1.9,-0.071"
         style="fill:#181f24;fill-opacity:1;fill-rule:nonzero;stroke:none"
         transform="matrix(0.13333333,0,0,-0.13333333,0,666.66667)" />
      <path
         id="path54"
         d="m 2650.44,174.031 c -3.86,-0.23 -7.75,-0.34 -11.57,-0.34 -8.8,0 -17.33,0.598 -24.78,1.789 -3.91,0.622 -8.46,1.551 -12.71,2.918 10.47,-18.609 30.7,-31.25 53.89,-31.25 28.55,0 52.62,19.161 59.49,45.043 -6.81,-4.5 -15.05,-8.261 -24.58,-11.23 -11.79,-3.68 -25.55,-6.07 -39.74,-6.93"
         style="fill:#181f24;fill-opacity:1;fill-rule:nonzero;stroke:none"
         transform="matrix(0.13333333,0,0,-0.13333333,0,666.66667)" />
      <path
         id="path55"
         d="m 2681.7,204.891 c -7.5,0 -13.6,6.101 -13.6,13.601 0,7.5 6.1,13.61 13.6,13.61 7.5,0 13.6,-6.11 13.6,-13.61 0,-7.5 -6.1,-13.601 -13.6,-13.601 z m -47.38,-9.082 c -10.19,0 -18.49,8.3 -18.49,18.5 0,10.203 8.3,18.492 18.49,18.492 10.2,0 18.5,-8.289 18.5,-18.492 0,-10.2 -8.3,-18.5 -18.5,-18.5 z m 21.6,65.152 c -33.52,0 -60.8,-26.672 -60.8,-59.441 0,-4.25 0.46,-8.489 1.37,-12.61 6.74,-4.828 27.06,-8.898 53.48,-7.308 28.79,1.73 52.97,9.57 66.72,21.578 -0.05,1.949 -0.21,3.902 -0.45,5.82 -3.8,29.621 -29.74,51.961 -60.32,51.961"
         style="fill:#181f24;fill-opacity:1;fill-rule:nonzero;stroke:none"
         transform="matrix(0.13333333,0,0,-0.13333333,0,666.66667)" />
      <path
         id="path56"
         d="m 2815.95,242.289 c -2.94,1.16 -8.05,3.082 -13.82,2.371 -5.51,-0.691 -8.44,-3.41 -8.44,-10.07 v -8.66 h 22.28 v -17.168 h -22.28 v -54.551 h -19.32 v 54.551 h -13.39 v 17.168 h 13.39 v 8.89 c 0,16.801 8.96,27.821 25.69,27.821 6.42,0 11.57,-1.211 15.9,-3.082 l -0.01,-17.27"
         style="fill:#181f24;fill-opacity:1;fill-rule:nonzero;stroke:none"
         transform="matrix(0.13333333,0,0,-0.13333333,0,666.66667)" />
      <path
         id="path57"
         d="m 2862.98,208.969 c -1.77,0.293 -3.58,0.461 -5.26,0.461 -8.96,0 -15.1,-5.481 -15.1,-16.141 v -39.078 h -19.32 v 71.719 h 18.73 v -7.84 c 4.51,6.73 11.39,9.769 20.2,9.769 4.15,0 8.48,-1.277 10.95,-3.367 l -10.2,-15.523"
         style="fill:#181f24;fill-opacity:1;fill-rule:nonzero;stroke:none"
         transform="matrix(0.13333333,0,0,-0.13333333,0,666.66667)" />
      <path
         id="path58"
         d="m 2888.51,196.852 h 31.75 c -1.78,9.168 -7.33,14.347 -15.62,14.347 -9.1,0 -14.43,-5.469 -16.13,-14.347 z m 51.14,-6.672 c 0,-2.219 -0.15,-4.879 -0.37,-6.508 h -50.85 c 2.08,-10.363 9.33,-14.883 18.43,-14.883 6.22,0 12.96,2.52 18.14,6.891 l 11.32,-12.438 c -8.14,-7.472 -18.5,-10.883 -30.57,-10.883 -21.98,0 -37.23,14.95 -37.23,37.532 0,22.57 14.81,37.968 36.27,37.968 20.65,0 34.79,-15.32 34.86,-37.679"
         style="fill:#181f24;fill-opacity:1;fill-rule:nonzero;stroke:none"
         transform="matrix(0.13333333,0,0,-0.13333333,0,666.66667)" />
      <path
         id="path59"
         d="m 2965.04,196.852 h 31.75 c -1.77,9.168 -7.33,14.347 -15.61,14.347 -9.11,0 -14.44,-5.469 -16.14,-14.347 z m 51.14,-6.672 c 0,-2.219 -0.15,-4.879 -0.37,-6.508 h -50.84 c 2.07,-10.363 9.32,-14.883 18.43,-14.883 6.21,0 12.95,2.52 18.13,6.891 l 11.32,-12.438 c -8.14,-7.472 -18.5,-10.883 -30.56,-10.883 -21.99,0 -37.23,14.95 -37.23,37.532 0,22.57 14.8,37.968 36.26,37.968 20.65,0 34.79,-15.32 34.86,-37.679"
         style="fill:#181f24;fill-opacity:1;fill-rule:nonzero;stroke:none"
         transform="matrix(0.13333333,0,0,-0.13333333,0,666.66667)" />
      <path
         id="path60"
         d="m 3042.87,190.109 c 0,-11.32 7.48,-19.757 18.43,-19.757 11.4,0 18.5,8.808 18.5,19.757 0,10.95 -7.1,19.762 -18.5,19.762 -10.95,0 -18.43,-8.441 -18.43,-19.762 z m 56.77,0 c 0,-21.539 -14.95,-37.75 -34.71,-37.75 -9.62,0 -16.43,3.782 -21.1,9.332 v -37.082 h -19.24 V 225.93 h 18.87 v -7.918 c 4.67,5.847 11.55,9.847 21.39,9.847 19.84,0 34.79,-16.211 34.79,-37.75"
         style="fill:#181f24;fill-opacity:1;fill-rule:nonzero;stroke:none"
         transform="matrix(0.13333333,0,0,-0.13333333,0,666.66667)" />
      <path
         id="path61"
         d="m 3128.09,154.211 h -19.32 v 71.719 h 19.32 z m 2.59,95.187 c 0,-6.957 -5.41,-12.289 -12.36,-12.289 -6.96,0 -12.29,5.332 -12.29,12.289 0,6.954 5.33,12.434 12.29,12.434 6.95,0 12.36,-5.48 12.36,-12.434"
         style="fill:#181f24;fill-opacity:1;fill-rule:nonzero;stroke:none"
         transform="matrix(0.13333333,0,0,-0.13333333,0,666.66667)" />
      <path
         id="path62"
         d="m 3160.32,200.398 27.02,25.532 h 23.68 l -34.79,-33.75 35.01,-37.969 h -23.76 l -27.16,29.019 V 154.211 H 3141 v 106.578 h 19.32 v -60.391"
         style="fill:#181f24;fill-opacity:1;fill-rule:nonzero;stroke:none"
         transform="matrix(0.13333333,0,0,-0.13333333,0,666.66667)" />
      <path
         id="path63"
         d="m 1844.12,174.051 v 32.078 c -3.95,6.152 -12.44,11.43 -21.24,11.43 -14.2,0 -22.7,-11.719 -22.7,-27.399 0,-15.668 8.5,-27.238 22.7,-27.238 8.8,0 17.29,4.976 21.24,11.129 z m 0,-19.192 v 10.551 c -5.27,-7.18 -13.91,-12.301 -23.87,-12.301 -18.46,0 -31.49,14.063 -31.49,37.051 0,22.559 12.89,37.211 31.49,37.211 9.52,0 18.16,-4.691 23.87,-12.449 v 37.637 h 10.99 v -97.7 h -10.99"
         style="fill:#181f24;fill-opacity:1;fill-rule:nonzero;stroke:none"
         transform="matrix(0.13333333,0,0,-0.13333333,0,666.66667)" />
      <path
         id="path64"
         d="m 1904.03,218.289 c -15.09,0 -22.55,-12.75 -23.14,-23.578 h 46.43 c -0.14,10.539 -7.17,23.578 -23.29,23.578 z m -34.71,-27.98 c 0,20.511 14.65,37.062 34.86,37.062 21.39,0 33.98,-16.699 33.98,-37.941 v -2.782 h -57.27 c 0.88,-13.328 10.25,-24.457 25.49,-24.457 8.05,0 16.26,3.219 21.82,8.93 l 5.27,-7.18 c -7.03,-7.031 -16.54,-10.832 -28.12,-10.832 -20.95,0 -36.03,15.082 -36.03,37.2"
         style="fill:#181f24;fill-opacity:1;fill-rule:nonzero;stroke:none"
         transform="matrix(0.13333333,0,0,-0.13333333,0,666.66667)" />
      <path
         id="path65"
         d="m 1946.07,164.242 5.71,7.906 c 4.69,-5.418 13.63,-10.109 23.29,-10.109 10.84,0 16.7,5.133 16.7,12.16 0,17.133 -43.79,6.59 -43.79,32.813 0,10.98 9.51,20.359 26.36,20.359 12.01,0 20.51,-4.539 26.22,-10.262 l -5.13,-7.609 c -4.24,5.129 -12.01,8.93 -21.09,8.93 -9.67,0 -15.67,-4.828 -15.67,-11.129 0,-15.52 43.79,-5.27 43.79,-32.809 0,-11.871 -9.52,-21.383 -27.83,-21.383 -11.57,0 -21.38,3.512 -28.56,11.133"
         style="fill:#181f24;fill-opacity:1;fill-rule:nonzero;stroke:none"
         transform="matrix(0.13333333,0,0,-0.13333333,0,666.66667)" />
      <path
         id="path66"
         d="m 2016.67,154.859 v 70.75 h 10.99 v -70.75 z m -1.9,88.18 c 0,4.102 3.37,7.473 7.32,7.473 4.1,0 7.47,-3.371 7.47,-7.473 0,-4.098 -3.37,-7.32 -7.47,-7.32 -3.95,0 -7.32,3.222 -7.32,7.32"
         style="fill:#181f24;fill-opacity:1;fill-rule:nonzero;stroke:none"
         transform="matrix(0.13333333,0,0,-0.13333333,0,666.66667)" />
      <path
         id="path67"
         d="m 2097.09,175.219 v 30.91 c -3.81,6.152 -12.31,11.43 -21.1,11.43 -14.21,0 -22.7,-11.278 -22.7,-26.957 0,-15.52 8.49,-26.954 22.7,-26.954 8.79,0 17.29,5.422 21.1,11.571 z m -51.27,-38.52 5.56,8.199 c 5.86,-7.027 12.9,-9.668 23,-9.668 11.72,0 22.71,5.719 22.71,21.239 v 10.113 c -5.13,-7.184 -13.77,-12.602 -23.74,-12.602 -18.45,0 -31.49,13.77 -31.49,36.622 0,22.707 12.89,36.769 31.49,36.769 9.53,0 18.02,-4.691 23.74,-12.449 v 10.687 h 10.98 V 156.91 c 0,-23.43 -16.4,-30.762 -33.69,-30.762 -12.01,0 -20.21,2.352 -28.56,10.551"
         style="fill:#181f24;fill-opacity:1;fill-rule:nonzero;stroke:none"
         transform="matrix(0.13333333,0,0,-0.13333333,0,666.66667)" />
      <path
         id="path68"
         d="m 2174.13,154.859 v 46.289 c 0,12.454 -6.3,16.411 -15.82,16.411 -8.64,0 -16.84,-5.278 -20.94,-10.989 v -51.711 h -10.99 v 70.75 h 10.99 v -10.25 c 4.98,5.86 14.64,12.012 25.19,12.012 14.79,0 22.56,-7.473 22.56,-22.851 v -49.661 h -10.99"
         style="fill:#181f24;fill-opacity:1;fill-rule:nonzero;stroke:none"
         transform="matrix(0.13333333,0,0,-0.13333333,0,666.66667)" />
      <path
         id="path69"
         d="m 2234.04,218.289 c -15.09,0 -22.56,-12.75 -23.14,-23.578 h 46.43 c -0.15,10.539 -7.18,23.578 -23.29,23.578 z m -34.72,-27.98 c 0,20.511 14.65,37.062 34.87,37.062 21.38,0 33.98,-16.699 33.98,-37.941 v -2.782 h -57.27 c 0.88,-13.328 10.25,-24.457 25.48,-24.457 8.06,0 16.26,3.219 21.83,8.93 l 5.27,-7.18 c -7.03,-7.031 -16.55,-10.832 -28.12,-10.832 -20.95,0 -36.04,15.082 -36.04,37.2"
         style="fill:#181f24;fill-opacity:1;fill-rule:nonzero;stroke:none"
         transform="matrix(0.13333333,0,0,-0.13333333,0,666.66667)" />
      <path
         id="path70"
         d="m 2333.5,174.051 v 32.078 c -3.96,6.152 -12.45,11.43 -21.24,11.43 -14.21,0 -22.7,-11.719 -22.7,-27.399 0,-15.668 8.49,-27.238 22.7,-27.238 8.79,0 17.28,4.976 21.24,11.129 z m 0,-19.192 v 10.551 c -5.27,-7.18 -13.92,-12.301 -23.88,-12.301 -18.45,0 -31.49,14.063 -31.49,37.051 0,22.559 12.89,37.211 31.49,37.211 9.52,0 18.17,-4.691 23.88,-12.449 v 37.637 h 10.98 v -97.7 h -10.98"
         style="fill:#181f24;fill-opacity:1;fill-rule:nonzero;stroke:none"
         transform="matrix(0.13333333,0,0,-0.13333333,0,666.66667)" />
      <path
         id="path71"
         d="m 2429,162.922 c 14.35,0 22.85,11.57 22.85,27.238 0,15.68 -8.5,27.399 -22.85,27.399 -8.64,0 -17.29,-5.278 -21.1,-11.43 v -32.078 c 3.81,-6.153 12.46,-11.129 21.1,-11.129 z m -32.08,-8.063 v 97.7 h 10.98 v -37.637 c 5.72,7.758 14.21,12.449 23.88,12.449 18.46,0 31.5,-14.652 31.5,-37.211 0,-22.988 -13.04,-37.051 -31.5,-37.051 -9.96,0 -18.6,5.121 -23.88,12.301 v -10.551 h -10.98"
         style="fill:#181f24;fill-opacity:1;fill-rule:nonzero;stroke:none"
         transform="matrix(0.13333333,0,0,-0.13333333,0,666.66667)" />
      <path
         id="path72"
         d="m 2475.28,137.141 c 1.62,-0.731 4.25,-1.172 6.01,-1.172 4.83,0 8.06,1.613 10.55,7.472 l 4.69,10.688 -29.59,71.48 h 11.86 l 23.58,-58 23.44,58 h 12.01 l -35.45,-85.097 c -4.24,-10.262 -11.42,-14.211 -20.8,-14.364 -2.34,0 -6,0.442 -8.05,1.032 l 1.75,9.961"
         style="fill:#181f24;fill-opacity:1;fill-rule:nonzero;stroke:none"
         transform="matrix(0.13333333,0,0,-0.13333333,0,666.66667)" />
    </g>
  </g>
</svg>
